<?xml version='1.0' encoding='utf-8'?>
<svg xmlns="http://www.w3.org/2000/svg" xmlns:xlink="http://www.w3.org/1999/xlink" width="210mm" height="210mm" version="1.1" viewBox="0 0 744.09449 744.09448">
 <defs>
  <linearGradient id="a">
   <stop stop-color="#fff" offset="0"/>
   <stop stop-color="#fff" stop-opacity="0" offset="1"/>
  </linearGradient>
  <radialGradient id="f" cx="130.21" cy="415.06" r="25.694" gradientTransform="matrix(1 0 0 2.9656 3.0714 -815.85)" gradientUnits="userSpaceOnUse" xlink:href="#a"/>
  <radialGradient id="g" cx="291.46" cy="415.06" r="25.694" gradientTransform="matrix(1 0 0 2.9656 3.0714 -815.85)" gradientUnits="userSpaceOnUse" xlink:href="#a"/>
  <radialGradient id="h" cx="613.96" cy="415.06" r="25.694" gradientTransform="matrix(1 0 0 2.9656 3.0714 -815.85)" gradientUnits="userSpaceOnUse" xlink:href="#a"/>
  <radialGradient id="i" cx="452.71" cy="415.06" r="25.694" gradientTransform="matrix(1 0 0 2.9656 3.0714 -815.85)" gradientUnits="userSpaceOnUse" xlink:href="#a"/>
 </defs>
 <g transform="translate(0 -308.27)">
  <path d="m683.38 974.06c0 10.322-8.9702 18.69-20.039 18.69h-566.59c-11.067 0-20.035-8.3678-20.035-18.69v-400.77c0-10.322 8.9683-18.688 20.035-18.688h566.59c11.068 0 20.039 8.3657 20.039 18.688v400.77zm15.665-538.3h-40.111v44.742c0 13.898-14.66 25.166-32.741 25.166h-9.0962c-18.081 0-32.741-11.268-32.741-25.166v-44.742h-86.489v44.742c0 13.898-14.66 25.166-32.741 25.166h-9.0962c-18.081 0-32.741-11.268-32.741-25.166v-44.742h-86.485v44.742c0 13.898-14.66 25.166-32.743 25.166h-9.0943c-18.083 0-32.741-11.268-32.741-25.166v-44.742h-86.489v44.742c0 13.898-14.66 25.166-32.743 25.166h-9.0943c-18.083 0-32.743-11.268-32.743-25.166v-44.742h-40.109c-12.462 0-22.562 11.268-22.562 25.166v539.68c0 13.898 10.1 25.166 22.562 25.166h638c12.46 0 22.562-11.268 22.562-25.166v-539.68c0-13.898-10.102-25.166-22.562-25.166" fill="#2e4104"/>
  <path d="m675.38 970.06c0 10.322-8.9702 18.69-20.039 18.69h-566.59c-11.067 0-20.035-8.3678-20.035-18.69v-400.77c0-10.322 8.9683-18.688 20.035-18.688h566.59c11.068 0 20.039 8.3657 20.039 18.688v400.77zm15.665-538.3h-40.111v44.742c0 13.898-14.66 25.166-32.741 25.166h-9.0962c-18.081 0-32.741-11.268-32.741-25.166v-44.742h-86.489v44.742c0 13.898-14.66 25.166-32.741 25.166h-9.0962c-18.081 0-32.741-11.268-32.741-25.166v-44.742h-86.485v44.742c0 13.898-14.66 25.166-32.743 25.166h-9.0943c-18.083 0-32.741-11.268-32.741-25.166v-44.742h-86.489v44.742c0 13.898-14.66 25.166-32.743 25.166h-9.0943c-18.083 0-32.743-11.268-32.743-25.166v-44.742h-40.109c-12.462 0-22.562 11.268-22.562 25.166v539.68c0 13.898 10.1 25.166 22.562 25.166h638c12.46 0 22.562-11.268 22.562-25.166v-539.68c0-13.898-10.102-25.166-22.562-25.166" fill="#547808"/>
  <path d="m158.98 470.32c0 11.564-10.1 20.941-22.562 20.941h-6.2647c-12.462 0-22.562-9.3766-22.562-20.941v-110.52c0-11.566 10.1-20.941 22.562-20.941h6.2647c12.462 0 22.562 9.3745 22.562 20.941v110.52z" fill="#547808"/>
  <path d="m320.23 470.32c0 11.564-10.1 20.941-22.562 20.941h-6.2647c-12.462 0-22.562-9.3766-22.562-20.941v-110.52c0-11.566 10.1-20.941 22.562-20.941h6.2647c12.462 0 22.562 9.3745 22.562 20.941v110.52z" fill="#547808"/>
  <path d="m642.73 470.32c0 11.564-10.1 20.941-22.562 20.941h-6.2647c-12.462 0-22.562-9.3766-22.562-20.941v-110.52c0-11.566 10.1-20.941 22.562-20.941h6.2647c12.462 0 22.562 9.3745 22.562 20.941v110.52z" fill="#547808"/>
  <path d="m481.48 470.32c0 11.564-10.098 20.941-22.562 20.941h-6.2647c-12.46 0-22.562-9.3766-22.562-20.941v-110.52c0-11.566 10.102-20.941 22.562-20.941h6.2647c12.464 0 22.562 9.3745 22.562 20.941v110.52z" fill="#547808"/>
  <path d="m158.98 470.32c0 11.564-10.1 20.941-22.562 20.941h-6.2647c-12.462 0-22.562-9.3766-22.562-20.941v-110.52c0-11.566 10.1-20.941 22.562-20.941h6.2647c12.462 0 22.562 9.3745 22.562 20.941v110.52z" fill="url(#f)"/>
  <path d="m320.23 470.32c0 11.564-10.1 20.941-22.562 20.941h-6.2647c-12.462 0-22.562-9.3766-22.562-20.941v-110.52c0-11.566 10.1-20.941 22.562-20.941h6.2647c12.462 0 22.562 9.3745 22.562 20.941v110.52z" fill="url(#g)"/>
  <path d="m642.73 470.32c0 11.564-10.1 20.941-22.562 20.941h-6.2647c-12.462 0-22.562-9.3766-22.562-20.941v-110.52c0-11.566 10.1-20.941 22.562-20.941h6.2647c12.462 0 22.562 9.3745 22.562 20.941v110.52z" fill="url(#h)"/>
  <path d="m481.48 470.32c0 11.564-10.098 20.941-22.562 20.941h-6.2647c-12.46 0-22.562-9.3766-22.562-20.941v-110.52c0-11.566 10.102-20.941 22.562-20.941h6.2647c12.464 0 22.562 9.3745 22.562 20.941v110.52z" fill="url(#i)"/>
 </g>
 <path d="m160.1 590.99h-75.538v-63.365h75.538v63.365z" fill="#85b819"/>
 <path d="m160.1 662.61h-75.538v-63.363h75.538v63.363z" fill="#85b819"/>
 <path d="m160.1 520.06h-75.538v-63.365h75.538v63.365z" fill="#85b819"/>
 <path d="m160.1 449.13h-75.538v-63.363h75.538v63.363z" fill="#f9f9f9"/>
 <path d="m160.09 377.51h-75.537v-63.363h75.537v63.363z" fill="#badc73"/>
 <text x="88.862457" y="362.44131" fill="#547808" font-family="sans-serif" font-size="44.08px" letter-spacing="0px" stroke-width="1px" word-spacing="0px" style="line-height:125%"><tspan x="88.862457" y="362.44131" fill="#547808" font-family="Merienda" font-size="43.046px" style="line-height:125%">Mo</tspan></text>
 <path d="m243.78 590.99h-75.538v-63.365h75.538v63.365z" fill="#85b819"/>
 <path d="m243.78 662.61h-75.538v-63.363h75.538v63.363z" fill="#85b819"/>
 <path d="m243.78 520.06h-75.538v-63.365h75.538v63.365z" fill="#85b819"/>
 <path d="m243.78 449.13h-75.538v-63.363h75.538v63.363z" fill="#85b819"/>
 <path d="m243.78 377.51h-75.538v-63.363h75.538v63.363z" fill="#badc73"/>
 <text x="181.86642" y="363.73273" fill="#547808" font-family="Merienda" font-size="43.046px" letter-spacing="0px" stroke-width="1px" word-spacing="0px" style="line-height:125%"><tspan x="181.86642" y="363.73273">Di</tspan></text>
 <path d="m327.46 590.99h-75.537v-63.365h75.537v63.365z" fill="#85b819"/>
 <path d="m327.46 662.61h-75.537v-63.363h75.537v63.363z" fill="#85b819"/>
 <path d="m327.46 520.06h-75.537v-63.365h75.537v63.365z" fill="#85b819"/>
 <path d="m327.46 449.13h-75.537v-63.363h75.537v63.363z" fill="#85b819"/>
 <path d="m327.46 377.51h-75.537v-63.363h75.537v63.363z" fill="#badc73"/>
 <text x="262.25436" y="362.44131" fill="#547808" font-family="Merienda" font-size="43.046px" letter-spacing="0px" stroke-width="1px" word-spacing="0px" style="line-height:125%"><tspan x="262.25436" y="362.44131">Mi</tspan></text>
 <path d="m411.14 590.99h-75.538v-63.365h75.538v63.365z" fill="#85b819"/>
 <path d="m411.14 662.61h-75.537v-63.363h75.537v63.363z" fill="#85b819"/>
 <path d="m411.14 520.06h-75.538v-63.365h75.538v63.365z" fill="#85b819"/>
 <path d="m411.14 449.13h-75.538v-63.363h75.538v63.363z" fill="#85b819"/>
 <path d="m411.14 377.51h-75.538v-63.363h75.538v63.363z" fill="#badc73"/>
 <text x="343.20218" y="363.73273" fill="#547808" font-family="Merienda" font-size="43.046px" letter-spacing="0px" stroke-width="1px" word-spacing="0px" style="line-height:125%"><tspan x="343.20218" y="363.73273">Do</tspan></text>
 <path d="m494.82 590.99h-75.537v-63.365h75.537v63.365z" fill="#85b819"/>
 <path d="m494.82 662.61h-75.537v-63.363h75.537v63.363z" fill="#85b819"/>
 <path d="m494.82 520.06h-75.537v-63.365h75.537v63.365z" fill="#85b819"/>
 <path d="m494.82 449.13h-75.537v-63.363h75.537v63.363z" fill="#85b819"/>
 <path d="m494.82 377.51h-75.537v-63.363h75.537v63.363z" fill="#badc73"/>
 <text x="433.81958" y="362.52744" fill="#547808" font-family="Merienda" font-size="43.046px" letter-spacing="0px" stroke-width="1px" word-spacing="0px" style="line-height:125%"><tspan x="433.81958" y="362.52744">Fr</tspan></text>
 <path d="m578.51 590.99h-75.537v-63.365h75.537v63.365z" fill="#85b819"/>
 <path d="m578.51 520.06h-75.537v-63.365h75.537v63.365z" fill="#85b819"/>
 <path d="m578.5 449.13h-75.537v-63.363h75.537v63.363z" fill="#85b819"/>
 <path d="m578.5 377.51h-75.537v-63.363h75.537v63.363z" fill="#badc73"/>
 <path d="m578.51 662.61h-75.537v-63.365h75.537v63.365z" fill="#85b819"/>
 <text x="514.22113" y="362.59198" fill="#547808" font-family="Merienda" font-size="43.046px" letter-spacing="0px" stroke-width="1px" word-spacing="0px" style="line-height:125%"><tspan x="514.22113" y="362.59198">Sa</tspan></text>
 <path d="m662.19 590.99h-75.537v-63.365h75.537v63.365z" fill="#85b819"/>
 <path d="m662.19 520.06h-75.537v-63.365h75.537v63.365z" fill="#85b819"/>
 <path d="m662.19 449.13h-75.537v-63.363h75.537v63.363z" fill="#85b819"/>
 <path d="m662.19 377.51h-75.537v-63.363h75.537v63.363z" fill="#badc73"/>
 <path d="m662.19 662.61h-75.537v-63.365h75.537v63.365z" fill="#85b819"/>
 <text x="598.07434" y="362.76416" fill="#547808" font-family="Merienda" font-size="43.046px" letter-spacing="0px" stroke-width="1px" word-spacing="0px" style="line-height:125%"><tspan x="598.07434" y="362.76416">So</tspan></text>
 <text x="512.50232" y="291.72586" fill="#547808" font-family="sans-serif" font-size="40px" letter-spacing="0px" stroke-width="1px" word-spacing="0px" style="line-height:125%"><tspan x="512.50232" y="291.72586" fill="#547808" font-family="Merienda" font-size="30px" style="line-height:125%">November</tspan></text>
</svg>